<svg xmlns="http://www.w3.org/2000/svg" viewBox="0 0 1180 610" width="100%" height="100%">
  <defs>
    <!-- Fonts -->
    <style type="text/css">
      @import url('https://fonts.googleapis.com/css2?family=Outfit:wght@300;400;500;600;700&amp;family=Fira+Code:wght@400;500;700&amp;display=swap');
      
      .text-primary { font-family: 'Outfit', -apple-system, BlinkMacSystemFont, "Segoe UI", Roboto, sans-serif; font-weight: 700; fill: #F8FAFC; }
      .text-secondary { font-family: 'Outfit', -apple-system, BlinkMacSystemFont, "Segoe UI", Roboto, sans-serif; font-weight: 400; fill: #94A3B8; }
      .text-mono { font-family: 'Fira Code', monospace; font-weight: 500; }
      .text-mono-bold { font-family: 'Fira Code', monospace; font-weight: 700; }
      
      /* Glassmorphism and Panel Styling */
      .panel-bg { fill: #0F172A; fill-opacity: 0.75; stroke: rgba(255, 255, 255, 0.08); stroke-width: 1.5; filter: url(#blur-panel); }
      .terminal-header { fill: #1E293B; stroke: rgba(255, 255, 255, 0.08); stroke-width: 1.5; }
      
      /* Skill pill style */
      .pill { stroke: rgba(255, 255, 255, 0.06); stroke-width: 1; fill: #1E293B; fill-opacity: 0.6; }
      .pill-text { font-family: 'Outfit', sans-serif; font-weight: 500; font-size: 11px; fill: #E2E8F0; text-anchor: middle; }
      
      /* CRT scanline effect */
      .scanline { fill: url(#scanline-grad); opacity: 0.08; }
      .noise { fill: url(#noise-pattern); opacity: 0.02; }
      
      /* Keyframe animations using SMIL */
    </style>

    <!-- Filters for Glow and Blur -->
    <filter id="blur-panel" x="-10%" y="-10%" width="120%" height="120%">
      <feGaussianBlur stdDeviation="12" result="blur" />
      <feComposite in="SourceGraphic" in2="blur" operator="over" />
    </filter>
    
    <filter id="glow-cyan" x="-20%" y="-20%" width="140%" height="140%">
      <feGaussianBlur stdDeviation="6" result="blur" />
      <feMerge>
        <feMergeNode in="blur" />
        <feMergeNode in="SourceGraphic" />
      </feMerge>
    </filter>
    
    <filter id="glow-purple" x="-20%" y="-20%" width="140%" height="140%">
      <feGaussianBlur stdDeviation="8" result="blur" />
      <feMerge>
        <feMergeNode in="blur" />
        <feMergeNode in="SourceGraphic" />
      </feMerge>
    </filter>

    <!-- Gradients -->
    <linearGradient id="bg-grad" x1="0%" y1="0%" x2="100%" y2="100%">
      <stop offset="0%" stop-color="#030712" />
      <stop offset="50%" stop-color="#080E1E" />
      <stop offset="100%" stop-color="#030712" />
    </linearGradient>

    <!-- Soft background glowing meshes -->
    <radialGradient id="glow-mesh-1" cx="20%" cy="30%" r="40%">
      <stop offset="0%" stop-color="#7C3AED" stop-opacity="0.15" />
      <stop offset="100%" stop-color="#7C3AED" stop-opacity="0" />
    </radialGradient>

    <radialGradient id="glow-mesh-2" cx="80%" cy="70%" r="50%">
      <stop offset="0%" stop-color="#22D3EE" stop-opacity="0.12" />
      <stop offset="100%" stop-color="#22D3EE" stop-opacity="0" />
    </radialGradient>

    <radialGradient id="glow-mesh-3" cx="50%" cy="50%" r="35%">
      <stop offset="0%" stop-color="#10B981" stop-opacity="0.08" />
      <stop offset="100%" stop-color="#10B981" stop-opacity="0" />
    </radialGradient>

    <!-- Accent text gradients -->
    <linearGradient id="accent-grad" x1="0%" y1="0%" x2="100%" y2="0%">
      <stop offset="0%" stop-color="#7C3AED" />
      <stop offset="50%" stop-color="#22D3EE" />
      <stop offset="100%" stop-color="#10B981" />
    </linearGradient>

    <linearGradient id="ascii-grad" x1="0%" y1="0%" x2="0%" y2="100%">
      <stop offset="0%" stop-color="#22D3EE" />
      <stop offset="50%" stop-color="#8B5CF6" />
      <stop offset="100%" stop-color="#3B82F6" />
    </linearGradient>

    <!-- Grid pattern for background -->
    <pattern id="grid" width="40" height="40" patternUnits="userSpaceOnUse">
      <path d="M 40 0 L 0 0 0 40" fill="none" stroke="rgba(255, 255, 255, 0.015)" stroke-width="1" />
    </pattern>

    <!-- CRT Scanline Gradient -->
    <linearGradient id="scanline-grad" x1="0%" y1="0%" x2="0%" y2="100%">
      <stop offset="0%" stop-color="#000" stop-opacity="0.3" />
      <stop offset="50%" stop-color="#fff" stop-opacity="0.1" />
      <stop offset="100%" stop-color="#000" stop-opacity="0.3" />
    </linearGradient>

    <!-- Noise pattern -->
    <pattern id="noise-pattern" width="4" height="4" patternUnits="userSpaceOnUse">
      <rect width="2" height="2" fill="rgba(255, 255, 255, 0.15)" />
      <rect x="2" y="2" width="2" height="2" fill="rgba(0, 0, 0, 0.15)" />
    </pattern>
  </defs>

  <!-- Background Base -->
  <rect width="1180" height="610" rx="20" fill="url(#bg-grad)" />

  <!-- Animated Glowing Mesh Elements -->
  <circle cx="200" cy="150" r="350" fill="url(#glow-mesh-1)">
    <animate attributeName="cx" values="200;250;180;200" dur="15s" repeatCount="indefinite" />
    <animate attributeName="cy" values="150;200;120;150" dur="15s" repeatCount="indefinite" />
  </circle>
  <circle cx="950" cy="450" r="400" fill="url(#glow-mesh-2)">
    <animate attributeName="cx" values="950;900;980;950" dur="18s" repeatCount="indefinite" />
    <animate attributeName="cy" values="450;400;480;450" dur="18s" repeatCount="indefinite" />
  </circle>
  <circle cx="590" cy="300" r="280" fill="url(#glow-mesh-3)">
    <animate attributeName="r" values="280;310;260;280" dur="12s" repeatCount="indefinite" />
  </circle>

  <!-- Tech Grid Overlay -->
  <rect width="1180" height="610" rx="20" fill="url(#grid)" />

  <!-- Floating Ambient Particles -->
  <g opacity="0.6">
    <circle cx="150" cy="400" r="2" fill="#22D3EE">
      <animate attributeName="cy" values="400;370;400" dur="6s" repeatCount="indefinite" />
      <animate attributeName="opacity" values="0.2;0.8;0.2" dur="6s" repeatCount="indefinite" />
    </circle>
    <circle cx="500" cy="120" r="1.5" fill="#7C3AED">
      <animate attributeName="cy" values="120;150;120" dur="8s" repeatCount="indefinite" />
      <animate attributeName="opacity" values="0.1;0.9;0.1" dur="8s" repeatCount="indefinite" />
    </circle>
    <circle cx="850" cy="80" r="2.5" fill="#10B981">
      <animate attributeName="cy" values="80;110;80" dur="7s" repeatCount="indefinite" />
      <animate attributeName="opacity" values="0.3;0.7;0.3" dur="7s" repeatCount="indefinite" />
    </circle>
    <circle cx="1050" cy="500" r="2" fill="#3B82F6">
      <animate attributeName="cy" values="500;470;500" dur="9s" repeatCount="indefinite" />
      <animate attributeName="opacity" values="0.2;0.8;0.2" dur="9s" repeatCount="indefinite" />
    </circle>
  </g>

  <!-- CRT scanlines and Noise Overlay -->
  <rect width="1180" height="610" rx="20" class="scanline" pointer-events="none" />
  <rect width="1180" height="610" rx="20" class="noise" pointer-events="none" />

  <!-- Outer Shimmering Border -->
  <rect x="2" y="2" width="1176" height="606" rx="18" fill="none" stroke="url(#accent-grad)" stroke-width="1.5" opacity="0.3">
    <animate attributeName="opacity" values="0.1;0.4;0.1" dur="5s" repeatCount="indefinite" />
  </rect>

  <!-- ======================================================== -->
  <!--                      LEFT SIDE: ASCII PORTRAIT           -->
  <!-- ======================================================== -->
  <g transform="translate(45, 60)">
    <!-- Terminal Box Frame -->
    <rect width="380" height="490" rx="12" fill="#090d16" fill-opacity="0.7" stroke="rgba(255, 255, 255, 0.05)" stroke-width="1" />
    
    <!-- Cyber Terminal Header -->
    <path d="M 0 12 A 12 12 0 0 1 12 0 L 368 0 A 12 12 0 0 1 380 12 L 380 32 L 0 32 Z" fill="#0d1322" />
    <circle cx="20" cy="16" r="4" fill="#EF4444" />
    <circle cx="32" cy="16" r="4" fill="#F59E0B" />
    <circle cx="44" cy="16" r="4" fill="#10B981" />
    <text x="70" y="21" class="text-mono" font-size="11" fill="#475569">terminal::avatar-scanner</text>

    <!-- Inner Grid Scanline Graphic -->
    <line x1="10" y1="32" x2="370" y2="32" stroke="rgba(255, 255, 255, 0.04)" stroke-width="1" />

    <!-- Animated Scanning Laser Bar -->
    <line x1="15" y1="50" x2="365" y2="50" stroke="#22D3EE" stroke-width="1" opacity="0.3" filter="url(#glow-cyan)">
      <animate attributeName="y1" values="50;460;50" dur="6s" repeatCount="indefinite" />
      <animate attributeName="y2" values="50;460;50" dur="6s" repeatCount="indefinite" />
    </line>

    <!-- Large Animated ASCII Art Profile (Mukul) -->
    <g transform="translate(25, 45)">
      <!-- Soft Breathing Floating Animation for ASCII -->
      <animateTransform attributeName="transform" type="translate" values="25, 45; 25, 40; 25, 45" dur="4s" repeatCount="indefinite" additive="sum" />
      
      <!-- ASCII Text Lines with Sequential Typing Animations -->
      <!-- We use a clip-path to simulate line-by-line reveal -->
      <g fill="url(#ascii-grad)" class="text-mono" font-size="11" letter-spacing="1.5" filter="url(#glow-cyan)" opacity="0.85">
        <!-- Lines representing an abstract developer cyber portal silhouette -->
        <text x="0" y="30">      ._________________.      </text>
        <text x="0" y="50">    .´                  `.    </text>
        <text x="0" y="70">   /   .------.  .------. \   </text>
        <text x="0" y="90">  |   /  __    \/    __  \ |  </text>
        <text x="0" y="110">  |  |  (  )   ||   (  )  ||  </text>
        <text x="0" y="130">  |   \  ¯¯    /\    ¯¯  / |  </text>
        <text x="0" y="150">   \   `------&#39;  `------&#39; /   </text>
        <text x="0" y="170">    `.        /--\       .´    </text>
        <text x="0" y="190">      |      \____/      |      </text>
        <text x="0" y="210">      |                  |      </text>
        <text x="0" y="230">      \    .--------.    /      </text>
        <text x="0" y="250">       \  /  ANGULAR \  /       </text>
        <text x="0" y="270">        `\  SPRING    /´        </text>
        <text x="0" y="290">          `\   AI   /´          </text>
        <text x="0" y="310">            `\____/´            </text>
        <text x="0" y="330">              \  /              </text>
        <text x="0" y="350">               \/               </text>
        
        <!-- Interactive Scan CRT flickering effect -->
        <animate attributeName="opacity" values="0.85;0.78;0.88;0.85;0.9;0.85" dur="0.25s" repeatCount="indefinite" />
      </g>

      <!-- Terminal Logs Overlay inside ASCII Box -->
      <g transform="translate(20, 385)" class="text-mono" font-size="11" fill="#10B981">
        <text x="0" y="0">&gt; SECURE SHELL INTERFACE ON...</text>
        <text x="0" y="15">&gt; PROFILE: MUKUL // ANGULAR.DEV</text>
        <text x="0" y="30">&gt; STATUS: ONLINE &amp; ACTIVE</text>
        <!-- Blinking green terminal cursor -->
        <rect x="200" y="20" width="8" height="11" fill="#10B981">
          <animate attributeName="opacity" values="1;0;1" dur="1s" repeatCount="indefinite" />
        </rect>
      </g>
    </g>
  </g>

  <!-- ======================================================== -->
  <!--                      RIGHT SIDE: PREMIUM TERMINAL        -->
  <!-- ======================================================== -->
  <g transform="translate(455, 60)">
    <!-- Glassmorphic Terminal Panel -->
    <rect width="680" height="490" rx="16" class="panel-bg" />
    
    <!-- Subtle Inner Border Border Shimmer -->
    <rect x="1" y="1" width="678" height="488" rx="15" fill="none" stroke="rgba(255, 255, 255, 0.05)" stroke-width="1" />

    <!-- Terminal Header Bar -->
    <path d="M 0 16 A 16 16 0 0 1 16 0 L 664 0 A 16 16 0 0 1 680 16 L 680 40 L 0 40 Z" class="terminal-header" />
    
    <!-- Window Control Buttons (macOS Style) -->
    <circle cx="28" cy="20" r="6" fill="#EF4444" opacity="0.8" />
    <circle cx="48" cy="20" r="6" fill="#F59E0B" opacity="0.8" />
    <circle cx="68" cy="20" r="6" fill="#10B981" opacity="0.8" />
    
    <!-- Terminal Title -->
    <text x="340" y="25" class="text-mono" font-size="12" fill="#64748B" text-anchor="middle">mukul@github: ~</text>

    <!-- Terminal Content Area -->
    <g transform="translate(35, 75)">
      
      <!-- GREETING SECTION -->
      <g>
        <text x="0" y="10" class="text-secondary" font-size="16" font-weight="500" letter-spacing="1">CONSOLE_INIT</text>
        <text x="0" y="42" class="text-primary" font-size="34" font-weight="700">Hi 👋 I'm Mukul</text>
      </g>

      <!-- ROTATING TYPING JOB TITLE ANIMATION (SMIL) -->
      <g transform="translate(0, 80)">
        <text x="0" y="0" class="text-mono-bold" font-size="20" fill="url(#accent-grad)" letter-spacing="0.5">
          <!-- Phrase 1: Frontend Engineer -->
          <tspan x="0" dy="0">
            Frontend Engineer
            <animate attributeName="opacity" values="1;1;0;0;0;0;0;0;0;0" dur="12s" repeatCount="indefinite" />
          </tspan>
        </text>
        <text x="0" y="0" class="text-mono-bold" font-size="20" fill="url(#accent-grad)" letter-spacing="0.5">
          <!-- Phrase 2: Angular Developer -->
          <tspan x="0" dy="0">
            Angular Developer
            <animate attributeName="opacity" values="0;0;1;1;0;0;0;0;0;0" dur="12s" repeatCount="indefinite" />
          </tspan>
        </text>
        <text x="0" y="0" class="text-mono-bold" font-size="20" fill="url(#accent-grad)" letter-spacing="0.5">
          <!-- Phrase 3: UI Engineer -->
          <tspan x="0" dy="0">
            UI Engineer
            <animate attributeName="opacity" values="0;0;0;0;1;1;0;0;0;0" dur="12s" repeatCount="indefinite" />
          </tspan>
        </text>
        <text x="0" y="0" class="text-mono-bold" font-size="20" fill="url(#accent-grad)" letter-spacing="0.5">
          <!-- Phrase 4: Software Engineer -->
          <tspan x="0" dy="0">
            Software Engineer
            <animate attributeName="opacity" values="0;0;0;0;0;0;1;1;0;0" dur="12s" repeatCount="indefinite" />
          </tspan>
        </text>
        <text x="0" y="0" class="text-mono-bold" font-size="20" fill="url(#accent-grad)" letter-spacing="0.5">
          <!-- Phrase 5: AI Enthusiast -->
          <tspan x="0" dy="0">
            AI Enthusiast
            <animate attributeName="opacity" values="0;0;0;0;0;0;0;0;1;1" dur="12s" repeatCount="indefinite" />
          </tspan>
        </text>

        <!-- Dynamic Typing Block Cursor -->
        <!-- Moves horizontally to match typing length -->
        <rect x="210" y="-16" width="10" height="20" fill="#22D3EE" opacity="0.8" filter="url(#glow-cyan)">
          <!-- X position jumps to simulate word bounds -->
          <animate attributeName="x" values="210;210;210;210;140;140;185;185;155;155;210" dur="12s" repeatCount="indefinite" />
          <animate attributeName="opacity" values="1;0;1;0;1;0;1;0;1;0;1" dur="1s" repeatCount="indefinite" />
        </rect>
      </g>

      <!-- INFORMATION PANEL (with sequential reveal fade-in) -->
      <g transform="translate(0, 110)" opacity="0">
        <animate attributeName="opacity" from="0" to="1" begin="0.8s" dur="0.8s" fill="freeze" />
        
        <!-- Grid Structure for Info Items -->
        <!-- Col 1 -->
        <g transform="translate(0, 15)">
          <text x="0" y="0" class="text-mono" font-size="12" fill="#64748B">📍 Location</text>
          <text x="0" y="18" class="text-primary" font-size="13" font-weight="600">India</text>
        </g>
        <g transform="translate(0, 60)">
          <text x="0" y="0" class="text-mono" font-size="12" fill="#64748B">💼 Experience</text>
          <text x="0" y="18" class="text-primary" font-size="13" font-weight="600">Frontend Developer @ Tata Consultancy Services</text>
        </g>
        <g transform="translate(0, 105)">
          <text x="0" y="0" class="text-mono" font-size="12" fill="#64748B">🎓 Education</text>
          <text x="0" y="18" class="text-primary" font-size="13" font-weight="600">B.Tech in Computer Science // Amrita Vishwa Vidyapeetham (2023)</text>
        </g>

        <!-- Col 2: Current Focus -->
        <g transform="translate(360, 15)">
          <text x="0" y="0" class="text-mono" font-size="12" fill="#64748B">🚀 Current Focus</text>
          <g transform="translate(0, 8)" class="text-primary" font-size="12" font-weight="500">
            <text x="0" y="10">• Angular</text>
            <text x="0" y="28">• Spring Boot</text>
            <text x="0" y="46">• AI Applications</text>
            <text x="120" y="10">• Modern UI/UX</text>
            <text x="120" y="28">• Open Source</text>
          </g>
        </g>
      </g>

      <!-- SKILLS GRID (glowing pills with hover animations) -->
      <g transform="translate(0, 260)" opacity="0">
        <animate attributeName="opacity" from="0" to="1" begin="1.4s" dur="0.8s" fill="freeze" />
        <text x="0" y="0" class="text-mono" font-size="12" fill="#64748B">⚡ Tech Stack &amp; Tools</text>

        <!-- Pills Grid Layout -->
        <!-- Row 1 -->
        <g transform="translate(0, 12)">
          <!-- Angular -->
          <g transform="translate(0, 0)">
            <rect width="66" height="24" rx="12" class="pill" />
            <text y="16" x="33" class="pill-text">Angular</text>
          </g>
          <!-- TypeScript -->
          <g transform="translate(74, 0)">
            <rect width="84" height="24" rx="12" class="pill" />
            <text y="16" x="42" class="pill-text">TypeScript</text>
          </g>
          <!-- JavaScript -->
          <g transform="translate(166, 0)">
            <rect width="84" height="24" rx="12" class="pill" />
            <text y="16" x="42" class="pill-text">JavaScript</text>
          </g>
          <!-- HTML5 -->
          <g transform="translate(258, 0)">
            <rect width="58" height="24" rx="12" class="pill" />
            <text y="16" x="29" class="pill-text">HTML5</text>
          </g>
          <!-- CSS3 -->
          <g transform="translate(324, 0)">
            <rect width="52" height="24" rx="12" class="pill" />
            <text y="16" x="26" class="pill-text">CSS3</text>
          </g>
          <!-- RxJS -->
          <g transform="translate(384, 0)">
            <rect width="50" height="24" rx="12" class="pill" />
            <text y="16" x="25" class="pill-text">RxJS</text>
          </g>
          <!-- Spring Boot -->
          <g transform="translate(442, 0)">
            <rect width="88" height="24" rx="12" class="pill" />
            <text y="16" x="44" class="pill-text">Spring Boot</text>
          </g>
          <!-- Docker -->
          <g transform="translate(538, 0)">
            <rect width="62" height="24" rx="12" class="pill" />
            <text y="16" x="31" class="pill-text">Docker</text>
          </g>
        </g>

        <!-- Row 2 -->
        <g transform="translate(0, 44)">
          <!-- Kotlin -->
          <g transform="translate(0, 0)">
            <rect width="56" height="24" rx="12" class="pill" />
            <text y="16" x="28" class="pill-text">Kotlin</text>
          </g>
          <!-- Firebase -->
          <g transform="translate(64, 0)">
            <rect width="72" height="24" rx="12" class="pill" />
            <text y="16" x="36" class="pill-text">Firebase</text>
          </g>
          <!-- REST APIs -->
          <g transform="translate(144, 0)">
            <rect width="82" height="24" rx="12" class="pill" />
            <text y="16" x="41" class="pill-text">REST APIs</text>
          </g>
          <!-- SQL -->
          <g transform="translate(234, 0)">
            <rect width="46" height="24" rx="12" class="pill" />
            <text y="16" x="23" class="pill-text">SQL</text>
          </g>
          <!-- Ollama -->
          <g transform="translate(288, 0)">
            <rect width="62" height="24" rx="12" class="pill" />
            <text y="16" x="31" class="pill-text">Ollama</text>
          </g>
          <!-- AI -->
          <g transform="translate(358, 0)">
            <rect width="36" height="24" rx="12" class="pill" />
            <text y="16" x="18" class="pill-text">AI</text>
          </g>
          <!-- Git -->
          <g transform="translate(402, 0)">
            <rect width="40" height="24" rx="12" class="pill" />
            <text y="16" x="20" class="pill-text">Git</text>
          </g>
          <!-- VS Code -->
          <g transform="translate(450, 0)">
            <rect width="70" height="24" rx="12" class="pill" />
            <text y="16" x="35" class="pill-text">VS Code</text>
          </g>
        </g>
      </g>

      <!-- SOCIAL MEDIA and CONTACT ICONS -->
      <g transform="translate(0, 360)" opacity="0">
        <animate attributeName="opacity" from="0" to="1" begin="2.0s" dur="0.8s" fill="freeze" />
        
        <!-- Divider -->
        <line x1="0" y1="-10" x2="610" y2="-10" stroke="rgba(255, 255, 255, 0.05)" stroke-width="1" />

        <!-- Portfolio link -->
        <g transform="translate(0, 10)">
          <text x="0" y="10" class="text-mono" font-size="11" fill="#64748B">🌐 Portfolio:</text>
          <text x="90" y="10" class="text-mono" font-size="11" fill="#22D3EE">https://mukulmbr.dev</text>
          
          <text x="320" y="10" class="text-mono" font-size="11" fill="#64748B">📧 Email:</text>
          <text x="380" y="10" class="text-mono" font-size="11" fill="#10B981">mukul.mbr@example.com</text>
        </g>

        <!-- Social Icons Row -->
        <g transform="translate(0, 30)">
          <!-- GitHub Icon -->
          <g transform="translate(0, 0)">
            <circle cx="16" cy="16" r="16" fill="#1E293B" fill-opacity="0.6" stroke="rgba(255,255,255,0.06)" />
            <path d="M16 6a10 10 0 00-3.16 19.49c.5.09.68-.22.68-.48l-.01-1.7c-2.78.6-3.37-1.34-3.37-1.34-.46-1.16-1.11-1.47-1.11-1.47-.9-.62.07-.6.07-.6 1 .07 1.53 1.03 1.53 1.03.9 1.52 2.34 1.08 2.91.83.09-.65.35-1.09.64-1.34-2.22-.25-4.55-1.11-4.55-4.94 0-1.1.39-1.99 1.03-2.69-.1-.25-.45-1.27.1-2.64 0 0 .84-.27 2.75 1.02a9.58 9.58 0 015 0c1.91-1.3 2.75-1.02 2.75-1.02.55 1.37.2 2.39.1 2.64.64.7 1.03 1.6 1.03 2.69 0 3.84-2.34 4.68-4.57 4.93.36.31.68.92.68 1.85l-.01 2.75c0 .26.18.58.69.48A10 10 0 0016 6z" fill="#F8FAFC" />
          </g>
          <!-- LinkedIn Icon -->
          <g transform="translate(42, 0)">
            <circle cx="16" cy="16" r="16" fill="#1E293B" fill-opacity="0.6" stroke="rgba(255,255,255,0.06)" />
            <path d="M9 10h3.6v12H9zm1.8-1.7a2.1 2.1 0 110-4.2 2.1 2.1 0 010 4.2zm6.2 3.7h3.4v1.6h.1c.5-.9 1.6-1.9 3.4-1.9 3.6 0 4.3 2.4 4.3 5.5V22h-3.6v-5.6c0-1.3 0-3.1-1.9-3.1-1.9 0-2.2 1.5-2.2 3V22h-3.5V12z" fill="#0077B5" transform="scale(0.8) translate(4, 4)" />
          </g>
          <!-- Portfolio Link Icon -->
          <g transform="translate(84, 0)">
            <circle cx="16" cy="16" r="16" fill="#1E293B" fill-opacity="0.6" stroke="rgba(255,255,255,0.06)" />
            <path d="M12.93 5h2.14l-3 14H9.93l3-14zm4.49 3.76L21.18 12l-3.76 3.24.76.88 4.76-4.12L22.94 12l-.76-.66-4.76-4.12-.76.54zm-6.84 0l-.76-.54L5.06 11.34 4.3 12l.76.66 4.76 4.12.76-.88L6.82 12l3.76-3.24z" fill="#22D3EE" transform="scale(0.9) translate(1, 1)" />
          </g>
          <!-- Email Icon -->
          <g transform="translate(126, 0)">
            <circle cx="16" cy="16" r="16" fill="#1E293B" fill-opacity="0.6" stroke="rgba(255,255,255,0.06)" />
            <path d="M20 4H4c-1.1 0-1.99.9-1.99 2L2 18c0 1.1.9 2 2 2h16c1.1 0 2-.9 2-2V6c0-1.1-.9-2-2-2zm0 4l-8 5-8-5V6l8 5 8-5v2z" fill="#10B981" transform="scale(0.8) translate(4, 4)" />
          </g>
        </g>
      </g>

    </g>
  </g>
</svg>
